<?xml version="1.0" encoding="utf-8"?>
<!-- Generator: Adobe Illustrator 16.0.0, SVG Export Plug-In . SVG Version: 6.00 Build 0)  -->
<!DOCTYPE svg PUBLIC "-//W3C//DTD SVG 1.1//EN" "http://www.w3.org/Graphics/SVG/1.1/DTD/svg11.dtd">
<svg version="1.1" id="Layer_1" xmlns="http://www.w3.org/2000/svg" xmlns:xlink="http://www.w3.org/1999/xlink" x="0px" y="0px"
	 width="1024px" height="768px" viewBox="0 0 1024 768" enable-background="new 0 0 1024 768" xml:space="preserve">
<path fill="#EF8031" stroke="#000000" stroke-width="6" stroke-miterlimit="10" d="M155.317,186.984
	c-3.339,0-6.525,0.648-9.448,1.815c0,0-0.001-98.031-0.001-99.146c0-22.176-17.977-40.153-40.153-40.153
	c-22.176,0-40.153,17.977-40.153,40.153c0,1.115,0,101.024,0,101.024c-3.857-2.344-8.384-3.693-13.227-3.693
	c-14.089,0-25.51,11.421-25.51,25.51s11.421,25.51,25.51,25.51c5.999,0,11.51-2.076,15.866-5.541
	c5.768,15.104,20.385,25.835,37.515,25.835c16.355,0,30.417-9.783,36.677-23.812c3.791,2.233,8.207,3.519,12.924,3.519
	c14.089,0,25.51-11.421,25.51-25.51S169.406,186.984,155.317,186.984z"/>
</svg>
