<?xml version="1.0" encoding="utf-8"?>
<!-- Generator: Adobe Illustrator 16.0.0, SVG Export Plug-In . SVG Version: 6.00 Build 0)  -->
<!DOCTYPE svg PUBLIC "-//W3C//DTD SVG 1.1//EN" "http://www.w3.org/Graphics/SVG/1.1/DTD/svg11.dtd">
<svg version="1.1" id="Layer_1" xmlns="http://www.w3.org/2000/svg" xmlns:xlink="http://www.w3.org/1999/xlink" x="0px" y="0px"
	 width="600px" height="600px" viewBox="0 0 600 600" enable-background="new 0 0 600 600" xml:space="preserve">
<path fill="#EF8031" stroke="#000000" stroke-width="12" stroke-miterlimit="10" d="M403.091,370.63
	c-7.128,0-13.93,1.384-20.169,3.875c0,0-0.002-209.28-0.002-211.661c0-47.342-38.377-85.72-85.72-85.72
	c-47.342,0-85.72,38.378-85.72,85.72c0,2.381,0,215.669,0,215.669c-8.234-5.004-17.898-7.884-28.237-7.884
	c-30.078,0-54.459,24.383-54.459,54.461s24.381,54.458,54.459,54.458c12.807,0,24.572-4.431,33.871-11.829
	c12.313,32.245,43.518,55.153,80.087,55.153c34.916,0,64.936-20.885,78.301-50.834c8.093,4.767,17.52,7.511,27.589,7.511
	c30.079,0,54.46-24.38,54.46-54.457C457.552,395.016,433.17,370.63,403.091,370.63z"/>
</svg>
